<?xml version="1.0" encoding="UTF-8" standalone="no"?>
<!-- Splash screen - MAUI scales this to BaseSize="128,128" centered on color background #00b366 -->
<svg width="256" height="256" viewBox="0 0 256 256" version="1.1"
     xmlns="http://www.w3.org/2000/svg">

  <!-- ── Shopping bag (white) ── -->
  <!-- Handle -->
  <path d="M 76,112
           C 76,52 92,34 128,34
           C 164,34 180,52 180,112"
        fill="none"
        stroke="white"
        stroke-width="16"
        stroke-linecap="round"
        stroke-linejoin="round"/>

  <!-- Bag body -->
  <path d="M 56,112
           L  44,220
           Q  43,236  60,236
           L 196,236
           Q 213,236 212,220
           L 200,112
           Z"
        fill="white"/>

  <!-- Fold crease -->
  <line x1="56" y1="134" x2="200" y2="134"
        stroke="#c8ead8" stroke-width="3"/>

  <!-- Tomato -->
  <circle cx="100" cy="186" r="22" fill="#E74C3C"/>
  <circle cx="94"  cy="176" r="5"  fill="#ffffff" fill-opacity="0.35"/>
  <line x1="100" y1="164" x2="100" y2="155"
        stroke="#27AE60" stroke-width="4" stroke-linecap="round"/>
  <ellipse cx="109" cy="156" rx="8" ry="5"
           fill="#27AE60" transform="rotate(-30 109 156)"/>

  <!-- Carrot -->
  <path d="M 143,162 Q 141,208 139,212 Q 137,216 141,217 Q 146,218 148,212 Q 151,204 149,162 Z"
        fill="#E67E22"/>
  <line x1="142" y1="162" x2="137" y2="149"
        stroke="#27AE60" stroke-width="4" stroke-linecap="round"/>
  <line x1="146" y1="161" x2="146" y2="146"
        stroke="#27AE60" stroke-width="4" stroke-linecap="round"/>
  <line x1="150" y1="162" x2="157" y2="149"
        stroke="#27AE60" stroke-width="4" stroke-linecap="round"/>

  <!-- Apple (green) -->
  <circle cx="178" cy="191" r="19" fill="#7DC242"/>
  <circle cx="172" cy="182" r="5"  fill="#ffffff" fill-opacity="0.35"/>
  <line x1="178" y1="172" x2="178" y2="163"
        stroke="#5A8A1A" stroke-width="4" stroke-linecap="round"/>
  <ellipse cx="186" cy="164" rx="7" ry="4"
           fill="#5A8A1A" transform="rotate(-25 186 164)"/>
</svg>